<svg width="92" height="19" viewBox="0 0 92 19" fill="none" xmlns="http://www.w3.org/2000/svg">
    <path d="M2.69988 18.4571C1.63467 18.4571 0.775391 17.5978 0.775391 16.5326V2.67059C0.775391 1.60537 1.63467 0.746094 2.69988 0.746094C3.7651 0.746094 4.62438 1.60537 4.62438 2.67059V16.5397C4.62438 17.6049 3.7651 18.4642 2.69988 18.4642V18.4571Z" fill="white"/>
    <path d="M12.2295 7.83984H3.87109V11.3267H12.2295V7.83984Z" fill="white"/>
    <path d="M13.6657 18.4571C12.6005 18.4571 11.7412 17.5978 11.7412 16.5326V2.67059C11.7412 1.60537 12.6005 0.746094 13.6657 0.746094C14.7309 0.746094 15.5902 1.60537 15.5902 2.67059V16.5397C15.5902 17.6049 14.7309 18.4642 13.6657 18.4642V18.4571Z" fill="white"/>
    <path d="M20.5632 18.4574C19.4979 18.4574 18.6387 17.5981 18.6387 16.5329V6.86785C18.6387 5.80264 19.4979 4.94336 20.5632 4.94336C21.6284 4.94336 22.4877 5.80264 22.4877 6.86785V16.5329C22.4877 17.5981 21.6284 18.4574 20.5632 18.4574Z" fill="white"/>
    <path d="M20.6401 4.43175C21.6556 4.43175 22.4793 3.60798 22.4793 2.59247C22.4793 1.57696 21.6556 0.746094 20.6401 0.746094C19.6245 0.746094 18.8008 1.56986 18.8008 2.58537C18.8008 3.60088 19.6245 4.42465 20.6401 4.42465V4.43175Z" fill="white"/>
    <path d="M32.378 10.0199C33.145 9.38782 34.2812 9.50145 34.9132 10.2755L39.1812 15.488C39.8132 16.2549 39.6996 17.3912 38.9256 18.0232C38.1586 18.6552 37.0224 18.5416 36.3903 17.7675L32.1224 12.5551C31.4974 11.7881 31.604 10.6519 32.378 10.027V10.0199Z" fill="white"/>
    <path d="M33.7245 12.8109H27.3119C26.4739 12.8109 25.8135 12.1363 25.8135 11.2912C25.8135 10.4461 26.4739 9.77151 27.3119 9.77151H33.6464C35.8691 9.77151 37.0196 8.64948 37.0196 6.7889C37.0196 4.92832 35.9117 3.80629 33.7458 3.80629H27.319C26.481 3.80629 25.8206 3.13165 25.8206 2.28658C25.8206 1.44151 26.4739 0.759766 27.319 0.759766H33.6322C37.7581 0.759766 39.7891 3.11035 39.7891 6.82441C39.7891 10.5385 37.7439 12.8109 33.7245 12.8109Z" fill="white"/>
    <path d="M35.9551 3.80078H29.0596V4.35469H35.9551V3.80078Z" fill="white"/>
    <path d="M35.9551 9.21875H29.0596V9.77266H35.9551V9.21875Z" fill="white"/>
    <path d="M33.7725 4.14662C34.8377 3.69213 35.9668 3.76314 36.6628 4.38097C37.3161 4.94909 37.3658 5.77996 37.4155 6.56111C37.4794 7.61213 37.2735 9.30938 36.5065 9.52952C36.0804 9.65025 35.768 9.25257 34.7667 9.29517C34.4968 9.30938 34.2767 9.34488 34.1346 9.37329C35.3916 9.00401 36.2083 7.78967 36.0733 6.51851C35.9881 5.65923 35.3277 4.72894 34.4684 4.33836C34.2056 4.21764 33.9571 4.16082 33.7725 4.13952V4.14662Z" fill="white"/>
    <path d="M27.3557 18.4145C28.3854 18.4145 29.2163 17.5837 29.2163 16.5539C29.2163 15.5242 28.3854 14.6934 27.3557 14.6934C26.326 14.6934 25.4951 15.5242 25.4951 16.5539C25.4951 17.5837 26.326 18.4145 27.3557 18.4145Z" fill="white"/>
    <path d="M27.3557 12.8109C26.326 12.8109 25.4951 11.9801 25.4951 10.9504V2.62035C25.4951 1.59064 26.326 0.759766 27.3557 0.759766C28.3854 0.759766 29.2163 1.59064 29.2163 2.62035V10.9432C29.2163 11.973 28.3854 12.8109 27.3557 12.8109Z" fill="white"/>
    <path d="M54.562 4.1903H45.1739C44.2223 4.1903 43.4482 3.41624 43.4482 2.46464C43.4482 1.51305 44.2152 0.746094 45.1668 0.746094H54.5549C55.5065 0.746094 56.2806 1.52015 56.2806 2.47175C56.2806 3.42334 55.5065 4.1974 54.5549 4.1974L54.562 4.1903Z" fill="white"/>
    <path d="M44.9653 18.379C43.9001 18.379 43.0408 17.5127 43.0479 16.4545L43.0621 2.67063C43.0621 1.60541 43.9285 0.739036 44.9866 0.746137C46.0518 0.746137 46.9111 1.61251 46.904 2.67063L46.8898 16.4617C46.8898 17.5198 46.0234 18.379 44.9653 18.379Z" fill="white"/>
    <path d="M54.5171 18.379H45.129C44.1774 18.379 43.4033 17.605 43.4033 16.6534C43.4033 15.7018 44.1774 14.9277 45.129 14.9277H54.5171C55.4687 14.9277 56.2427 15.7018 56.2427 16.6534C56.2427 17.605 55.4687 18.379 54.5171 18.379Z" fill="white"/>
    <path d="M53.3673 11.3283H46.5499C45.5983 11.3283 44.8242 10.5542 44.8242 9.60261C44.8242 8.65101 45.5983 7.87695 46.5499 7.87695H53.3673C54.3189 7.87695 55.0929 8.65101 55.0929 9.60261C55.0929 10.5542 54.3189 11.3283 53.3673 11.3283Z" fill="white"/>
    <path d="M70.6036 4.71688H61.251C60.1716 4.71688 59.291 3.8363 59.291 2.75688C59.291 1.67746 60.1716 0.796875 61.251 0.796875H70.6036C71.6831 0.796875 72.5636 1.67746 72.5636 2.75688C72.5636 3.8363 71.6831 4.71688 70.6036 4.71688Z" fill="#AD1927"/>
    <path d="M70.5909 11.6602H61.2383C60.1589 11.6602 59.2783 10.7797 59.2783 9.70024C59.2783 8.62081 60.1589 7.74023 61.2383 7.74023H70.5909C71.6704 7.74023 72.5509 8.62081 72.5509 9.70024C72.5509 10.7797 71.6704 11.6602 70.5909 11.6602Z" fill="#AD1927"/>
    <path d="M70.5909 18.4708H61.2383C60.1589 18.4708 59.2783 17.5902 59.2783 16.5108C59.2783 15.4314 60.1589 14.5508 61.2383 14.5508H70.5909C71.6704 14.5508 72.5509 15.4314 72.5509 16.5108C72.5509 17.5902 71.6704 18.4708 70.5909 18.4708Z" fill="#AD1927"/>
    <path d="M77.0393 1.17997C77.7637 0.590547 78.8147 0.697069 79.4112 1.41432L91.086 15.674C91.6754 16.3984 91.5689 17.4494 90.8516 18.0459C90.1273 18.6353 89.0692 18.5288 88.4798 17.8116L76.805 3.55185C76.2155 2.83461 76.3221 1.77649 77.0393 1.17997Z" fill="#AD1927"/>
    <path d="M76.5642 18.0315C77.2743 18.628 78.3395 18.5357 78.9361 17.8256L84.6456 11.0153C85.2422 10.3051 85.1498 9.23992 84.4397 8.6434C83.7295 8.04688 82.6643 8.1392 82.0678 8.84934L76.3582 15.6596C75.7617 16.3698 75.854 17.435 76.5642 18.0315Z" fill="#AD1927"/>
    <path d="M89.4797 4.70747C90.552 4.70747 91.4184 3.84109 91.4184 2.76877C91.4184 1.69646 90.552 0.830078 89.4797 0.830078C88.4074 0.830078 87.541 1.69646 87.541 2.76877C87.541 3.84109 88.4074 4.70747 89.4797 4.70747Z" fill="white"/>
    </svg>
    