<svg width="81" height="16" viewBox="0 0 81 16" fill="none" xmlns="http://www.w3.org/2000/svg">
<path d="M1.8513 15.9896C0.914654 15.9896 0.15625 15.2312 0.15625 14.2946V2.06224C0.15625 1.12559 0.914654 0.367188 1.8513 0.367188C2.78795 0.367188 3.54635 1.12559 3.54635 2.06224V14.2946C3.54635 15.2312 2.78795 15.9896 1.8513 15.9896Z" fill="#595959"/>
<path d="M10.2591 6.62695H2.88477V9.70251H10.2591V6.62695Z" fill="#595959"/>
<path d="M11.5251 15.9896C10.5885 15.9896 9.83008 15.2312 9.83008 14.2946V2.06224C9.83008 1.12559 10.5885 0.367188 11.5251 0.367188C12.4618 0.367188 13.2202 1.12559 13.2202 2.06224V14.2946C13.2202 15.2312 12.4618 15.9896 11.5251 15.9896Z" fill="#595959"/>
<path d="M17.6169 15.9881C16.6803 15.9881 15.9219 15.2297 15.9219 14.293V5.76536C15.9219 4.82872 16.6803 4.07031 17.6169 4.07031C18.5536 4.07031 19.312 4.82872 19.312 5.76536V14.293C19.312 15.2297 18.5536 15.9881 17.6169 15.9881Z" fill="#595959"/>
<path d="M17.6759 3.61749C18.5735 3.61749 19.3011 2.88988 19.3011 1.99234C19.3011 1.09479 18.5735 0.367188 17.6759 0.367188C16.7784 0.367188 16.0508 1.09479 16.0508 1.99234C16.0508 2.88988 16.7784 3.61749 17.6759 3.61749Z" fill="#595959"/>
<path d="M28.0361 8.55022C28.7141 7.99452 29.7137 8.09587 30.2694 8.77389L34.0334 13.3697C34.5891 14.0478 34.4878 15.0473 33.8098 15.603C33.1317 16.1587 32.1322 16.0574 31.5765 15.3793L27.8124 10.7835C27.2602 10.1055 27.3581 9.10591 28.0361 8.55022Z" fill="#595959"/>
<path d="M29.2255 11.0125H23.5707C22.8332 11.0125 22.2461 10.4183 22.2461 9.67043C22.2461 8.92251 22.8297 8.32837 23.5707 8.32837H29.1556C31.1163 8.32837 32.1298 7.33581 32.1298 5.69667C32.1298 4.05754 31.1512 3.06498 29.243 3.06498H23.5707C22.8332 3.06498 22.2461 2.47084 22.2461 1.72292C22.2461 0.974999 22.8297 0.380859 23.5707 0.380859H29.1416C32.7834 0.380859 34.5728 2.45336 34.5728 5.73162C34.5728 9.00639 32.7659 11.0125 29.2255 11.0125Z" fill="#595959"/>
<path d="M31.1906 3.06055H25.1094V3.54984H31.1906V3.06055Z" fill="#595959"/>
<path d="M31.1906 7.8418H25.1094V8.33109H31.1906V7.8418Z" fill="#595959"/>
<path d="M29.2676 3.36969C30.2042 2.97126 31.2003 3.03417 31.8189 3.57938C32.3921 4.08266 32.4375 4.8166 32.4829 5.50161C32.5423 6.42777 32.3571 7.9271 31.6791 8.12282C31.3051 8.23116 31.029 7.87817 30.1413 7.91312C29.9037 7.9236 29.7114 7.95506 29.5821 7.98302C30.69 7.65799 31.41 6.58853 31.2946 5.46666C31.2178 4.70825 30.6341 3.88694 29.8792 3.54443C29.645 3.43959 29.4283 3.39066 29.2676 3.36969Z" fill="#595959"/>
<path d="M23.6016 15.9532C24.5088 15.9532 25.2442 15.2178 25.2442 14.3106C25.2442 13.4034 24.5088 12.668 23.6016 12.668C22.6944 12.668 21.959 13.4034 21.959 14.3106C21.959 15.2178 22.6944 15.9532 23.6016 15.9532Z" fill="#595959"/>
<path d="M23.6016 11.0125C22.6929 11.0125 21.959 10.2786 21.959 9.36986V2.02349C21.959 1.1148 22.6929 0.380859 23.6016 0.380859C24.5103 0.380859 25.2442 1.1148 25.2442 2.02349V9.36637C25.2442 10.2751 24.5103 11.0125 23.6016 11.0125Z" fill="#595959"/>
<path d="M47.6002 3.40779H39.3172C38.4784 3.40779 37.7969 2.72628 37.7969 1.88749C37.7969 1.0487 38.4784 0.367188 39.3172 0.367188H47.6002C48.439 0.367188 49.1205 1.0487 49.1205 1.88749C49.1205 2.72628 48.439 3.40779 47.6002 3.40779Z" fill="#595959"/>
<path d="M39.1388 15.9197C38.2022 15.9197 37.4438 15.1578 37.4473 14.2212L37.4613 2.05876C37.4613 1.12211 38.2232 0.363705 39.1598 0.3672C40.0964 0.3672 40.8548 1.1291 40.8514 2.06574L40.8374 14.2282C40.8374 15.1613 40.0755 15.9197 39.1388 15.9197Z" fill="#595959"/>
<path d="M47.567 15.9195H39.284C38.4452 15.9195 37.7637 15.238 37.7637 14.3992C37.7637 13.5604 38.4452 12.8789 39.284 12.8789H47.567C48.4058 12.8789 49.0873 13.5604 49.0873 14.3992C49.0873 15.238 48.4058 15.9195 47.567 15.9195Z" fill="#595959"/>
<path d="M46.5511 9.70076H40.5398C39.701 9.70076 39.0195 9.01925 39.0195 8.18046C39.0195 7.34167 39.701 6.66016 40.5398 6.66016H46.5511C47.3899 6.66016 48.0714 7.34167 48.0714 8.18046C48.0714 9.01925 47.3899 9.70076 46.5511 9.70076Z" fill="#595959"/>
<path d="M61.7535 3.86625H53.5054C52.5513 3.86625 51.7754 3.09037 51.7754 2.13625C51.7754 1.18213 52.5513 0.40625 53.5054 0.40625H61.7535C62.7076 0.40625 63.4835 1.18213 63.4835 2.13625C63.4835 3.09037 62.7076 3.86625 61.7535 3.86625Z" fill="#AD1927"/>
<path d="M61.7398 9.9932H53.4917C52.5376 9.9932 51.7617 9.21732 51.7617 8.2632C51.7617 7.30908 52.5376 6.5332 53.4917 6.5332H61.7398C62.6939 6.5332 63.4698 7.30908 63.4698 8.2632C63.4698 9.22082 62.6939 9.9932 61.7398 9.9932Z" fill="#AD1927"/>
<path d="M61.7398 16.003H53.4917C52.5376 16.003 51.7617 15.2271 51.7617 14.273C51.7617 13.3188 52.5376 12.543 53.4917 12.543H61.7398C62.6939 12.543 63.4698 13.3188 63.4698 14.273C63.4698 15.2306 62.6939 16.003 61.7398 16.003Z" fill="#AD1927"/>
<path d="M67.4296 0.750496C68.0657 0.229749 68.9989 0.324113 69.5196 0.960193L79.8192 13.5385C80.34 14.1746 80.2456 15.1077 79.6095 15.6285C78.9735 16.1492 78.0403 16.0549 77.5196 15.4188L67.2234 2.84047C66.7027 2.20789 66.7971 1.27124 67.4296 0.750496Z" fill="#AD1927"/>
<path d="M67.0107 15.6128C67.6398 16.1405 68.5764 16.0567 69.1042 15.4311L74.1439 9.42325C74.6716 8.79416 74.5877 7.85751 73.9622 7.32977C73.3331 6.80204 72.3964 6.88592 71.8687 7.51151L66.829 13.5193C66.3012 14.1484 66.3816 15.0851 67.0107 15.6128Z" fill="#AD1927"/>
<path d="M78.4078 3.8645C79.3536 3.8645 80.1204 3.09778 80.1204 2.15198C80.1204 1.20618 79.3536 0.439453 78.4078 0.439453C77.462 0.439453 76.6953 1.20618 76.6953 2.15198C76.6953 3.09778 77.462 3.8645 78.4078 3.8645Z" fill="#595959"/>
</svg>
